<?xml version="1.0" encoding="UTF-8"?>
<svg width="15px" height="17px" viewBox="0 0 15 17" version="1.1" xmlns="http://www.w3.org/2000/svg" xmlns:xlink="http://www.w3.org/1999/xlink">
    <!-- Generator: Sketch 43.2 (39069) - http://www.bohemiancoding.com/sketch -->
    <title>Shape</title>
    <desc>Created with Sketch.</desc>
    <defs></defs>
    <g id="Page-1" stroke="none" stroke-width="1" fill="none" fill-rule="evenodd">
        <g id="ico-yarn-copy-3" fill-rule="nonzero" fill="#626262">
            <path d="M12.282652,14.2363301 C10.7072721,15.2593041 8.97844619,15.7349869 8.97844619,15.7349869 C8.97844619,15.7349869 8.83522984,15.9395817 8.41581053,16.0418791 C7.69972879,16.2157847 5.00930737,16.3641159 4.76379363,16.3692308 C4.09886058,16.3692308 3.69990075,16.2004401 3.58737362,15.929352 C3.24467736,15.1109728 4.07840111,14.752932 4.07840111,14.752932 C4.07840111,14.752932 3.8942658,14.6404048 3.78685354,14.5381074 C3.68455615,14.4358101 3.58225875,14.2465599 3.55668441,14.3181681 C3.42881267,14.63529 3.36231936,15.3922907 3.0196231,15.7401018 C2.54905509,16.2208996 1.65906778,16.0623386 1.12712134,15.7912505 C0.554255945,15.4843583 1.17827004,14.7682766 1.17827004,14.7682766 C1.17827004,14.7682766 0.861148122,14.9421821 0.61563438,14.5636818 C0.385465248,14.2056409 0.170640724,13.6174309 0.23201916,12.8860046 C0.293397595,12.0522808 1.22430386,11.2492463 1.22430386,11.2492463 C1.22430386,11.2492463 1.06062804,10.0114478 1.59768935,8.74296018 C2.07848709,7.59722939 3.38789371,6.67143799 3.38789371,6.67143799 C3.38789371,6.67143799 2.28819674,5.45921389 2.69738631,4.3646318 C2.9684744,3.64855005 3.07588666,3.64855005 3.15772458,3.6229757 C3.46461675,3.51044857 3.77150893,3.38257683 3.98633345,3.14217796 C5.08603042,1.95552821 6.49261956,2.18058247 6.49261956,2.18058247 C6.49261956,2.18058247 7.15755261,0.160208978 7.77133696,0.554053938 C7.95547227,0.676810809 8.6408648,2.19081221 8.6408648,2.19081221 C8.6408648,2.19081221 9.35694654,1.76627804 9.44389933,1.92483899 C9.87866324,2.77902222 9.92981194,4.41066562 9.73544689,5.40295033 C9.41321011,7.0397086 8.59483097,7.91946618 8.26747932,8.47187209 C8.1856414,8.59974383 9.13700715,9.00381853 9.7507915,10.671266 C10.3031974,12.2057269 9.8019402,13.4844443 9.89400785,13.6378904 C9.9195822,13.6685796 10.5589409,13.7197283 11.8427732,12.9320384 C12.5332806,12.5075042 13.3465448,12.0318213 14.2723362,12.0215916 C15.1674384,12.006247 15.2134722,13.0547953 14.5383095,13.2184711 C13.7148154,13.3974915 13.3056259,13.576512 12.282652,14.2363301 Z" id="Shape"></path>
        </g>
    </g>
</svg>