<?xml version="1.0" encoding="UTF-8" standalone="no"?>
<svg width="31px" height="18px" viewBox="0 0 31 18" version="1.1" xmlns="http://www.w3.org/2000/svg" xmlns:xlink="http://www.w3.org/1999/xlink">
    <!-- Generator: Sketch 40 (33762) - http://www.bohemiancoding.com/sketch -->
    <title>Logo</title>
    <desc>Created with Sketch.</desc>
    <defs></defs>
    <g id="Page-1" stroke="none" stroke-width="1" fill="none" fill-rule="evenodd">
        <g id="Logo">
            <g id="Segment-03" transform="translate(17.000000, 5.000000)" fill="#FFFFFF">
                <path d="M12.9363506,9.79524714 L1.55396583,9.79524714 C1.25166257,9.79524714 1.00434446,10.0464964 1.00434446,10.3536048 L1.00434446,10.4431976 C1.00434446,10.750306 1.25166257,11.0015552 1.55396583,11.0015552 L12.9363506,11.0015552 C13.2386538,11.0015552 13.4859719,10.750306 13.4859719,10.4431976 L13.4859719,10.3536048 C13.4859719,10.0464964 13.2386538,9.79524714 12.9363506,9.79524714" id="Fill-7"></path>
                <path d="M12.9363506,11.0015319 L1.55396583,11.0015319 C1.25166257,11.0015319 1.00434446,11.2527811 1.00434446,11.5598895 L1.00434446,11.6494823 C1.00434446,11.9565907 1.25166257,12.2078399 1.55396583,12.2078399 L12.9363506,12.2078399 C13.2386538,12.2078399 13.4859719,11.9565907 13.4859719,11.6494823 L13.4859719,11.5598895 C13.4859719,11.2527811 13.2386538,11.0015319 12.9363506,11.0015319" id="Fill-27"></path>
                <path d="M11.8096383,4.59821263 L1.15762801,8.67359252 C0.874726764,8.781805 0.730477037,9.10550753 0.836996373,9.39290553 L0.868054927,9.47673319 C0.97465095,9.76413118 1.29321202,9.91067378 1.57611326,9.8024613 L12.2281235,5.72708141 C12.5110248,5.61886894 12.6552745,5.2951664 12.5487552,5.0077684 L12.5176966,4.92394074 C12.4111006,4.63654275 12.0925395,4.49000016 11.8096383,4.59821263" id="Fill-10"></path>
                <path d="M9.07344105,0.304834074 L0.346754359,7.7287239 C0.115003867,7.92590588 0.0841753769,8.27983624 0.278195477,8.51527043 L0.334867752,8.58398418 C0.52896454,8.81941837 0.877357155,8.85073689 1.10910765,8.65355491 L9.83579434,1.22966508 C10.0675448,1.0324831 10.0983733,0.678552744 9.90427653,0.443118552 L9.84768095,0.3744048 C9.65358416,0.138970608 9.30519154,0.107652095 9.07344105,0.304834074" id="Fill-12"></path>
            </g>
            <g id="Segment-02" transform="translate(7.000000, 0.000000)" fill="#2CB075">
                <path d="M15.0243259,2.09650175 L9.3255031,12.1061165 C9.17412141,12.3719344 9.26438294,12.7151915 9.52604166,12.8689794 L9.6024227,12.9138537 C9.86408143,13.0675637 10.2019678,12.9758675 10.3533495,12.7100497 L16.0521723,2.70043486 C16.203554,2.43461704 16.1132925,2.09135991 15.8516338,1.93757199 L15.7752527,1.8926977 C15.513594,1.73898768 15.1756309,1.83068393 15.0243259,2.09650175" id="Fill-14"></path>
                <path d="M10.2096289,0.542075152 L8.14611396,11.9137336 C8.09135888,12.2157781 8.28975019,12.5083958 8.58699205,12.5640992 L8.67372593,12.5803038 C8.97104448,12.6360071 9.25908381,12.4344623 9.31383889,12.1324179 L11.3773539,0.760759394 C11.4321856,0.458792839 11.2337943,0.166097187 10.9364758,0.110471769 L10.8497419,0.0941892583 C10.5525,0.0385638403 10.2644607,0.240108597 10.2096289,0.542075152" id="Fill-16"></path>
                <path d="M5.09570387,0.749112335 L7.07869666,12.1355731 C7.13138117,12.4379292 7.41796343,12.6415774 7.71566541,12.5881334 L7.80247599,12.5724741 C8.10017798,12.5189522 8.30063985,12.2278147 8.24795534,11.9254586 L6.26496255,0.538919929 C6.21227804,0.23656384 5.92569578,0.032915601 5.6279938,0.0864375369 L5.54118322,0.102018886 C5.24348123,0.155540822 5.04301936,0.446756246 5.09570387,0.749112335" id="Fill-18"></path>
                <path d="M0.281812104,2.69382058 L6.01629473,12.6824006 C6.16859668,12.947673 6.50678982,13.0381228 6.76791173,12.8834 L6.84413939,12.838292 C7.10526131,12.6835692 7.19429583,12.3399225 7.04199388,12.0747279 L1.30751125,2.08607004 C1.15520931,1.82079756 0.817016168,1.73034783 0.555894254,1.88507063 L0.479666594,1.93025654 C0.21854468,2.08497934 0.129510159,2.4285481 0.281812104,2.69382058" id="Fill-21"></path>
            </g>
            <g id="Segment-01" transform="translate(0.000000, 5.000000)" fill="#FF3483">
                <path d="M3.5805681,1.11090403 L12.2714416,8.57803211 C12.5021951,8.77638269 12.8507411,8.74677812 13.0459882,8.51227881 L13.1029673,8.44387669 C13.2981377,8.20937738 13.2689963,7.85529121 13.0382428,7.65701853 L4.34736928,0.189890458 C4.11653904,-0.00846012198 3.76799305,0.0211444423 3.57282263,0.255643754 L3.51584361,0.324045878 C3.32067319,0.55854519 3.34973786,0.912631359 3.5805681,1.11090403" id="Fill-23"></path>
                <path d="M1.27482709,5.65553185 L11.9494603,9.66928751 C12.232975,9.77586394 12.5507692,9.62745158 12.6556781,9.33950824 L12.6862765,9.25544686 C12.7911854,8.96750352 12.6450952,8.64465796 12.3616571,8.53800362 L1.68702395,4.52424796 C1.4035092,4.41767153 1.08571501,4.56608389 0.980806118,4.85410513 L0.950207691,4.93808861 C0.845222111,5.22610986 0.991312344,5.54895542 1.27482709,5.65553185" id="Fill-25"></path>
                <path d="M11.9319678,9.65498383 L0.549583024,9.65498383 C0.247279768,9.65498383 -3.83438934e-05,9.90623309 -3.83438934e-05,10.2133415 L-3.83438934e-05,10.3029343 C-3.83438934e-05,10.6100427 0.247279768,10.8612919 0.549583024,10.8612919 L11.9319678,10.8612919 C12.234271,10.8612919 12.4815891,10.6100427 12.4815891,10.3029343 L12.4815891,10.2133415 C12.4815891,9.90623309 12.234271,9.65498383 11.9319678,9.65498383" id="Fill-1"></path>
                <path d="M11.9319678,10.8612608 L0.549583024,10.8612608 C0.247279768,10.8612608 -3.83438934e-05,11.11251 -3.83438934e-05,11.4196184 L-3.83438934e-05,11.5092112 C-3.83438934e-05,11.8163196 0.247279768,12.0675688 0.549583024,12.0675688 L11.9319678,12.0675688 C12.234271,12.0675688 12.4815891,11.8163196 12.4815891,11.5092112 L12.4815891,11.4196184 C12.4815891,11.11251 12.234271,10.8612608 11.9319678,10.8612608" id="Fill-4"></path>
            </g>
        </g>
    </g>
</svg>